HIERARCHY
ROOT Hips
{
	OFFSET 0.000000 0.000000 0.000000 
	CHANNELS 6 Xposition Yposition Zposition Zrotation Yrotation Xrotation
	JOINT LeftUpLeg
	{
		OFFSET 1.363060 -1.794630 0.839290 
		CHANNELS 3 Zrotation Yrotation Xrotation
		JOINT LeftLeg
		{
			OFFSET 2.448110 -6.726130 0.000000 
			CHANNELS 3 Zrotation Yrotation Xrotation
			JOINT LeftFoot
			{
				OFFSET 2.562200 -7.039590 0.000000 
				CHANNELS 3 Zrotation Yrotation Xrotation
				JOINT LeftToeBase
				{
					OFFSET 0.157640 -0.433110 2.322550 
					CHANNELS 3 Zrotation Yrotation Xrotation
					End Site
					{
						OFFSET 0.000000 0.000000 0.000000 
					}
				}
			}
		}
	}
	JOINT RightUpLeg
	{
		OFFSET -1.305520 -1.794630 0.839290 
		CHANNELS 3 Zrotation Yrotation Xrotation
		JOINT RightLeg
		{
			OFFSET -2.542530 -6.985550 0.000000 
			CHANNELS 3 Zrotation Yrotation Xrotation
			JOINT RightFoot
			{
				OFFSET -2.568260 -7.056230 0.000000 
				CHANNELS 3 Zrotation Yrotation Xrotation
				JOINT RightToeBase
				{
					OFFSET -0.164730 -0.452590 2.363150 
					CHANNELS 3 Zrotation Yrotation Xrotation
					End Site
					{
						OFFSET 0.000000 0.000000 0.000000 
					}
				}
			}
		}
	}
	JOINT Spine
	{
		OFFSET 0.028270 2.035590 -0.193380 
		CHANNELS 3 Zrotation Yrotation Xrotation
		JOINT Spine1
		{
			OFFSET 0.056720 2.048850 -0.042750 
			CHANNELS 3 Zrotation Yrotation Xrotation
			JOINT Neck1
			{
				OFFSET -0.054170 1.746240 0.172020 
				CHANNELS 3 Zrotation Yrotation Xrotation
				JOINT Head
				{
					OFFSET 0.104070 1.761360 -0.123970 
					CHANNELS 3 Zrotation Yrotation Xrotation
					End Site
					{
						OFFSET 0.000000 0.000000 0.000000 
					}
				}
			}
			JOINT LeftArm
			{
				OFFSET 3.362410 1.200890 -0.311210 
				CHANNELS 3 Zrotation Yrotation Xrotation
				JOINT LeftForeArm
				{
					OFFSET 4.983000 -0.000000 -0.000000 
					CHANNELS 3 Zrotation Yrotation Xrotation
					JOINT LeftHand
					{
						OFFSET 3.483560 -0.000000 -0.000000 
						CHANNELS 3 Zrotation Yrotation Xrotation
						JOINT LeftHandIndex1
						{
							OFFSET 0.715260 -0.000000 -0.000000 
							CHANNELS 3 Zrotation Yrotation Xrotation
							End Site
							{
								OFFSET 0.000000 0.000000 0.000000 
							}
						}
					}
				}
			}
			JOINT RightArm
			{
				OFFSET -3.136600 1.374050 -0.404650 
				CHANNELS 3 Zrotation Yrotation Xrotation
				JOINT RightForeArm
				{
					OFFSET -5.241900 -0.000000 -0.000000 
					CHANNELS 3 Zrotation Yrotation Xrotation
					JOINT RightHand
					{
						OFFSET -3.444170 -0.000000 -0.000000 
						CHANNELS 3 Zrotation Yrotation Xrotation
						JOINT RightHandIndex1
						{
							OFFSET -0.622530 -0.000000 -0.000000 
							CHANNELS 3 Zrotation Yrotation Xrotation
							End Site
							{
								OFFSET 0.000000 0.000000 0.000000 
							}
						}
					}
				}
			}
		}
	}
}
MOTION
Frames: 7
Frame Time: 0.041667
-1.516251 18.078595 5.984456 -5.301788 19.429775 -0.856510 -5.888384 -13.889911 14.078419 -0.491743 -8.565089 -21.885941 -2.093433 16.376282 17.578820 0.918900 -6.107700 -17.097100 23.471826 -14.860103 3.414017 1.147524 0.760813 2.365637 1.267004 -8.494616 -14.164719 -0.016800 -0.837000 2.300400 -1.692150 7.839467 21.617165 -6.500498 3.619020 -13.094157 11.847348 -13.529622 -6.964057 3.558900 -7.194200 2.104500 -78.629010 12.404981 38.576583 70.882589 -56.287219 -40.888562 0.253023 0.925979 -13.495900 -7.125000 0.000000 0.000000 57.214861 26.029894 46.769763 -110.852516 52.577239 -75.305019 0.868392 -0.521137 -5.164881 7.125000 0.000000 0.000000 
-1.518054 18.079297 5.990667 -5.284881 19.375044 -0.833034 -5.898821 -13.812348 14.073503 -0.492542 -8.572102 -21.891476 -2.094445 16.379051 17.588338 0.899400 -6.044100 -16.912500 23.464010 -14.840534 3.407701 1.147702 0.760951 2.362932 1.293981 -8.560293 -14.060163 -0.012000 -0.706200 1.940800 -1.675767 7.704639 21.678337 -6.460564 3.566840 -13.031924 12.276484 -13.815587 -7.270968 3.733700 -7.368400 2.061700 -78.782400 12.429555 38.308954 71.017445 -56.304044 -41.006725 0.248688 0.927811 -13.486155 -7.125000 0.000000 0.000000 57.142482 25.780063 46.392738 -110.827966 52.571566 -75.297586 0.868718 -0.528906 -5.080402 7.125000 0.000000 0.000000 
-1.521861 18.080799 5.995777 -5.241826 19.379392 -0.780027 -5.927804 -13.728324 14.042183 -0.489072 -8.590213 -21.924982 -2.082426 16.348703 17.630017 0.878300 -5.974700 -16.711000 23.438123 -14.867348 3.364098 1.147276 0.759399 2.360466 1.325771 -8.644194 -13.953214 -0.006200 -0.509600 1.400300 -1.619612 7.581373 21.625803 -6.384900 3.520980 -13.046111 12.433948 -14.237656 -7.430024 3.805800 -7.598600 2.042800 -78.895791 12.522779 38.167424 71.255950 -56.333441 -41.215209 0.243206 0.929429 -13.543238 -7.125000 0.000000 0.000000 57.022386 25.468161 46.015851 -110.834528 52.567344 -75.325473 0.871198 -0.533541 -4.979559 7.125000 0.000000 0.000000 
-1.528773 18.083104 5.997079 -5.323221 19.347915 -0.709326 -5.794029 -13.626960 13.919635 -0.477614 -8.607009 -21.980587 -2.075643 16.370299 17.697348 0.838700 -5.841700 -16.325800 23.580524 -14.858635 3.277481 1.148020 0.758111 2.356150 1.334800 -8.651730 -13.862027 -0.005600 -0.481900 1.324300 -1.659146 7.497290 21.454077 -6.453931 3.461324 -13.065359 13.460359 -14.721103 -7.382882 3.701000 -7.847900 1.946900 -78.942161 12.609296 38.004101 71.458767 -56.359725 -41.389559 0.241499 0.927091 -13.618698 -7.125000 0.000000 0.000000 56.978553 25.176938 45.635051 -110.866393 52.563342 -75.381228 0.871531 -0.530850 -5.015609 7.125000 0.000000 0.000000 
-1.536187 18.082102 5.998482 -5.568827 19.180802 -0.761904 -5.526465 -13.411705 13.845717 -0.459911 -8.628213 -22.040554 -2.056626 16.350388 17.796421 0.832600 -5.821100 -16.266100 23.854551 -14.753546 3.298566 1.150400 0.759211 2.349883 1.325280 -8.608071 -13.817109 -0.007100 -0.545400 1.498600 -1.456125 7.383537 21.420786 -6.600623 3.395304 -13.056893 14.042791 -15.153551 -7.602413 3.877500 -8.094000 1.958700 -79.080632 12.690675 37.694011 71.599373 -56.379264 -41.512597 0.242916 0.925097 -13.659146 -7.125000 0.000000 0.000000 56.903896 25.087189 45.348943 -110.823329 52.571756 -75.355862 0.875724 -0.529459 -5.200542 7.125000 0.000000 0.000000 
-1.536087 18.079798 6.007598 -5.703715 18.898518 -0.876443 -5.426611 -13.224861 13.989138 -0.449060 -8.656443 -22.102027 -2.079730 16.402490 17.720551 0.840600 -5.848400 -16.345200 23.941236 -14.564017 3.466764 1.152475 0.761631 2.346108 1.308816 -8.544997 -13.802916 -0.008100 -0.580000 1.593700 -1.211569 7.277688 21.561266 -6.669706 3.358246 -12.993377 14.621231 -15.592570 -7.931343 4.062900 -8.352800 1.948100 -79.266549 12.771865 37.382453 71.687636 -56.391312 -41.596045 0.245733 0.930009 -13.715889 -7.125000 0.000000 0.000000 56.821360 25.092196 45.114602 -110.778503 52.572051 -75.325516 0.880250 -0.529121 -5.377390 7.125000 0.000000 0.000000 
-1.533281 18.080098 6.018017 -5.710912 18.669198 -0.865708 -5.431366 -13.154838 14.093820 -0.447893 -8.675896 -22.152351 -2.145294 16.589486 17.550738 0.811400 -5.748400 -16.056000 23.919582 -14.384090 3.543216 1.154394 0.761568 2.343616 1.291782 -8.473004 -13.776888 -0.010300 -0.655900 1.802500 -1.199642 7.219135 21.596806 -6.669623 3.340632 -12.889792 15.248515 -16.117278 -8.276641 4.258600 -8.662600 1.939100 -79.346984 12.830129 37.208486 71.714900 -56.392155 -41.626043 0.242076 0.937107 -13.762058 -7.125000 0.000000 0.000000 56.807582 25.001755 44.819351 -110.838451 52.549234 -75.401379 0.875909 -0.525621 -5.404550 7.125000 0.000000 0.000000 
